<svg xmlns="http://www.w3.org/2000/svg" viewBox="0 0 440 340" width="440" height="340">
<defs>
<style>
  @import url('https://fonts.googleapis.com/css2?family=JetBrains+Mono:wght@500;700&amp;display=swap');
  .r-title { font-family: "JetBrains Mono", monospace; font-size: 13px; font-weight: 700; fill: #1f2328; }
  .r-label { font-family: "JetBrains Mono", monospace; font-size: 10px; font-weight: 500; fill: #57606a; }
  .r-val { font-family: "JetBrains Mono", monospace; font-size: 9px; font-weight: 700; fill: #39D353; }
  
  @keyframes radarPulse {
    0%, 100% { fill-opacity: 0.18; }
    50% { fill-opacity: 0.35; }
  }
  .radar-poly { animation: radarPulse 3s ease-in-out infinite; }
</style>
</defs>
<text x="220.0" y="24" text-anchor="middle" class="r-title">~/ Skills Matrix</text>
<polygon points="220.0,158.2 237.0,166.4 241.2,184.8 229.4,199.6 210.6,199.6 198.8,184.8 203.0,166.4" fill="none" stroke="#e1e4e8" stroke-width="1"/>
<polygon points="220.0,136.5 254.0,152.9 262.4,189.7 238.9,219.2 201.1,219.2 177.6,189.7 186.0,152.9" fill="none" stroke="#e1e4e8" stroke-width="1"/>
<polygon points="220.0,114.7 271.0,139.3 283.6,194.5 248.3,238.8 191.7,238.8 156.4,194.5 169.0,139.3" fill="none" stroke="#e1e4e8" stroke-width="1"/>
<polygon points="220.0,93.0 288.1,125.7 304.9,199.4 257.8,258.4 182.2,258.4 135.1,199.4 151.9,125.7" fill="none" stroke="#e1e4e8" stroke-width="1"/>
<polygon points="220.0,71.2 305.1,112.2 326.1,204.2 267.2,278.0 172.8,278.0 113.9,204.2 134.9,112.2" fill="none" stroke="#e1e4e8" stroke-width="1"/>
<line x1="220.0" y1="180.0" x2="220.0" y2="71.2" stroke="#d0d7de" stroke-width="1" stroke-dasharray="2 3"/>
<line x1="220.0" y1="180.0" x2="305.1" y2="112.2" stroke="#d0d7de" stroke-width="1" stroke-dasharray="2 3"/>
<line x1="220.0" y1="180.0" x2="326.1" y2="204.2" stroke="#d0d7de" stroke-width="1" stroke-dasharray="2 3"/>
<line x1="220.0" y1="180.0" x2="267.2" y2="278.0" stroke="#d0d7de" stroke-width="1" stroke-dasharray="2 3"/>
<line x1="220.0" y1="180.0" x2="172.8" y2="278.0" stroke="#d0d7de" stroke-width="1" stroke-dasharray="2 3"/>
<line x1="220.0" y1="180.0" x2="113.9" y2="204.2" stroke="#d0d7de" stroke-width="1" stroke-dasharray="2 3"/>
<line x1="220.0" y1="180.0" x2="134.9" y2="112.2" stroke="#d0d7de" stroke-width="1" stroke-dasharray="2 3"/>
<polygon points="220.0,87.5 286.3,127.1 307.0,199.9 255.4,253.5 182.2,258.4 145.7,196.9 155.4,128.4" fill="#39D353" stroke="#39D353" stroke-width="2" class="radar-poly"/>
<circle cx="220.0" cy="87.5" r="3.5" fill="#39D353" stroke="#ffffff" stroke-width="1.5"/>
<circle cx="286.3" cy="127.1" r="3.5" fill="#39D353" stroke="#ffffff" stroke-width="1.5"/>
<circle cx="307.0" cy="199.9" r="3.5" fill="#39D353" stroke="#ffffff" stroke-width="1.5"/>
<circle cx="255.4" cy="253.5" r="3.5" fill="#39D353" stroke="#ffffff" stroke-width="1.5"/>
<circle cx="182.2" cy="258.4" r="3.5" fill="#39D353" stroke="#ffffff" stroke-width="1.5"/>
<circle cx="145.7" cy="196.9" r="3.5" fill="#39D353" stroke="#ffffff" stroke-width="1.5"/>
<circle cx="155.4" cy="128.4" r="3.5" fill="#39D353" stroke="#ffffff" stroke-width="1.5"/>
<text x="220.0" y="43.2" text-anchor="middle" class="r-label">JavaScript</text>
<text x="327.8" y="93.2" text-anchor="start" class="r-label">TypeScript</text>
<text x="353.5" y="213.1" text-anchor="start" class="r-label">React</text>
<text x="281.6" y="311.6" text-anchor="start" class="r-label">Next.js</text>
<text x="158.4" y="311.6" text-anchor="end" class="r-label">Node.js</text>
<text x="86.5" y="213.1" text-anchor="end" class="r-label">HTML / CSS</text>
<text x="112.2" y="93.2" text-anchor="end" class="r-label">Git</text>
</svg>