<svg xmlns="http://www.w3.org/2000/svg" viewBox="0 0 400 400" width="400" height="400">
<defs>
<style>
  @import url('https://fonts.googleapis.com/css2?family=JetBrains+Mono:wght@400;600&amp;display=swap');
  text { font-family: "JetBrains Mono", "Fira Code", monospace; }
</style>
</defs>
<text x="200.0" y="22" text-anchor="middle" fill="#e6e6e6" font-size="13" font-weight="600">Language Radar</text>
<polygon points="200.0,186.5 218.6,218.8 181.4,218.8" fill="none" stroke="#333333" stroke-width="0.5"/>
<polygon points="200.0,165.0 237.2,229.5 162.8,229.5" fill="none" stroke="#333333" stroke-width="0.5"/>
<polygon points="200.0,143.5 255.9,240.3 144.1,240.3" fill="none" stroke="#333333" stroke-width="0.5"/>
<polygon points="200.0,122.0 274.5,251.0 125.5,251.0" fill="none" stroke="#333333" stroke-width="0.5"/>
<polygon points="200.0,100.5 293.1,261.8 106.9,261.8" fill="none" stroke="#333333" stroke-width="0.5"/>
<line x1="200.0" y1="208.0" x2="200.0" y2="100.5" stroke="#333333" stroke-width="0.5"/>
<line x1="200.0" y1="208.0" x2="293.1" y2="261.8" stroke="#333333" stroke-width="0.5"/>
<line x1="200.0" y1="208.0" x2="106.9" y2="261.8" stroke="#333333" stroke-width="0.5"/>
<polygon points="200.0,100.5 268.9,247.8 184.2,217.1" fill="#39D353" fill-opacity="0.25" stroke="#39D353" stroke-width="2">
  <animate attributeName="fill-opacity" values="0;0.25" dur="0.8s" fill="freeze"/>
</polygon>
<circle cx="200.0" cy="100.5" r="3.5" fill="#39D353" opacity="0.9">
  <animate attributeName="r" values="0;3.5" dur="0.5s" begin="0.00s" fill="freeze"/>
</circle>
<circle cx="268.9" cy="247.8" r="3.5" fill="#39D353" opacity="0.9">
  <animate attributeName="r" values="0;3.5" dur="0.5s" begin="0.05s" fill="freeze"/>
</circle>
<circle cx="184.2" cy="217.1" r="3.5" fill="#39D353" opacity="0.9">
  <animate attributeName="r" values="0;3.5" dur="0.5s" begin="0.10s" fill="freeze"/>
</circle>
<text x="200.0" y="72.5" text-anchor="middle" fill="#cccccc" font-size="9">JavaScript (1.9M)</text>
<text x="316.2" y="286.8" text-anchor="start" fill="#cccccc" font-size="10">Python (873K)</text>
<text x="83.8" y="286.8" text-anchor="end" fill="#cccccc" font-size="9">Jupyter Notebook (24K)</text>
</svg>